<?xml version="1.0" standalone="no"?><!DOCTYPE svg PUBLIC "-//W3C//DTD SVG 1.1//EN" "http://www.w3.org/Graphics/SVG/1.1/DTD/svg11.dtd"><svg t="1726216583035" class="icon" viewBox="0 0 1024 1024" version="1.1" xmlns="http://www.w3.org/2000/svg" p-id="9451" xmlns:xlink="http://www.w3.org/1999/xlink" width="200" height="200"><path d="M512 512m-512 0a512 512 0 1 0 1024 0 512 512 0 1 0-1024 0Z" fill="#FDEBED" p-id="9452"></path><path d="M512 691.2c-112.64 0-204.8-92.16-204.8-204.8v-25.6c0-7.68 5.12-12.8 12.8-12.8s12.8 5.12 12.8 12.8V485.12c0 98.56 80.64 179.2 179.2 179.2s179.2-80.64 179.2-179.2v-23.04-1.28c0-7.68 5.12-12.8 12.8-12.8s12.8 5.12 12.8 12.8v25.6c0 112.64-92.16 204.8-204.8 204.8z m12.8 38.4h38.4c7.68 0 12.8 5.12 12.8 12.8s-5.12 12.8-12.8 12.8h-102.4c-7.68 0-12.8-5.12-12.8-12.8s5.12-12.8 12.8-12.8h38.4v-38.4h25.6v38.4z m-12.8-89.6c-84.48 0-153.6-69.12-153.6-153.6v-64c0-84.48 69.12-153.6 153.6-153.6s153.6 69.12 153.6 153.6v64c0 84.48-69.12 153.6-153.6 153.6z" fill="#EC3A4E" p-id="9453"></path></svg>